<mxfile host="app.diagrams.net" modified="2024-01-08T10:03:36.649Z" agent="Mozilla/5.0 (Windows NT 10.0; Win64; x64) AppleWebKit/537.36 (KHTML, like Gecko) Chrome/120.0.0.0 Safari/537.36 Edg/120.0.0.0" etag="-dxbAdIgE_7D41nHBPv2" version="22.1.17" type="device">
  <diagram id="C5RBs43oDa-KdzZeNtuy" name="Page-1">
    <mxGraphModel dx="908" dy="546" grid="1" gridSize="10" guides="1" tooltips="1" connect="1" arrows="1" fold="1" page="1" pageScale="1" pageWidth="827" pageHeight="1169" math="0" shadow="0">
      <root>
        <mxCell id="WIyWlLk6GJQsqaUBKTNV-0" />
        <mxCell id="WIyWlLk6GJQsqaUBKTNV-1" parent="WIyWlLk6GJQsqaUBKTNV-0" />
        <mxCell id="4o-ihJ-DMzUth8nM_GmU-3" value="" style="edgeStyle=orthogonalEdgeStyle;rounded=0;orthogonalLoop=1;jettySize=auto;html=1;" edge="1" parent="WIyWlLk6GJQsqaUBKTNV-1" source="4o-ihJ-DMzUth8nM_GmU-1" target="4o-ihJ-DMzUth8nM_GmU-2">
          <mxGeometry relative="1" as="geometry" />
        </mxCell>
        <mxCell id="4o-ihJ-DMzUth8nM_GmU-1" value="Euklidův algoritmus" style="strokeWidth=2;html=1;shape=mxgraph.flowchart.start_2;whiteSpace=wrap;" vertex="1" parent="WIyWlLk6GJQsqaUBKTNV-1">
          <mxGeometry x="240" y="190" width="100" height="100" as="geometry" />
        </mxCell>
        <mxCell id="4o-ihJ-DMzUth8nM_GmU-5" value="" style="edgeStyle=orthogonalEdgeStyle;rounded=0;orthogonalLoop=1;jettySize=auto;html=1;" edge="1" parent="WIyWlLk6GJQsqaUBKTNV-1" source="4o-ihJ-DMzUth8nM_GmU-2" target="4o-ihJ-DMzUth8nM_GmU-4">
          <mxGeometry relative="1" as="geometry" />
        </mxCell>
        <mxCell id="4o-ihJ-DMzUth8nM_GmU-2" value="čísla X; Y" style="shape=parallelogram;perimeter=parallelogramPerimeter;whiteSpace=wrap;html=1;fixedSize=1;strokeWidth=2;" vertex="1" parent="WIyWlLk6GJQsqaUBKTNV-1">
          <mxGeometry x="230" y="320" width="120" height="60" as="geometry" />
        </mxCell>
        <mxCell id="4o-ihJ-DMzUth8nM_GmU-7" value="" style="edgeStyle=orthogonalEdgeStyle;rounded=0;orthogonalLoop=1;jettySize=auto;html=1;" edge="1" parent="WIyWlLk6GJQsqaUBKTNV-1" source="4o-ihJ-DMzUth8nM_GmU-4" target="4o-ihJ-DMzUth8nM_GmU-6">
          <mxGeometry relative="1" as="geometry" />
        </mxCell>
        <mxCell id="4o-ihJ-DMzUth8nM_GmU-13" value="" style="edgeStyle=orthogonalEdgeStyle;rounded=0;orthogonalLoop=1;jettySize=auto;html=1;" edge="1" parent="WIyWlLk6GJQsqaUBKTNV-1" source="4o-ihJ-DMzUth8nM_GmU-4" target="4o-ihJ-DMzUth8nM_GmU-12">
          <mxGeometry relative="1" as="geometry" />
        </mxCell>
        <mxCell id="4o-ihJ-DMzUth8nM_GmU-4" value="dokud v Y není 0" style="strokeWidth=2;html=1;shape=mxgraph.flowchart.loop_limit;whiteSpace=wrap;" vertex="1" parent="WIyWlLk6GJQsqaUBKTNV-1">
          <mxGeometry x="240" y="410" width="100" height="60" as="geometry" />
        </mxCell>
        <mxCell id="4o-ihJ-DMzUth8nM_GmU-9" value="" style="edgeStyle=orthogonalEdgeStyle;rounded=0;orthogonalLoop=1;jettySize=auto;html=1;" edge="1" parent="WIyWlLk6GJQsqaUBKTNV-1" source="4o-ihJ-DMzUth8nM_GmU-6" target="4o-ihJ-DMzUth8nM_GmU-8">
          <mxGeometry relative="1" as="geometry" />
        </mxCell>
        <mxCell id="4o-ihJ-DMzUth8nM_GmU-6" value="Z = zbytek po dělení X děleno Y" style="whiteSpace=wrap;html=1;strokeWidth=2;" vertex="1" parent="WIyWlLk6GJQsqaUBKTNV-1">
          <mxGeometry x="230" y="500" width="120" height="60" as="geometry" />
        </mxCell>
        <mxCell id="4o-ihJ-DMzUth8nM_GmU-8" value="do X uložit Y,&lt;br&gt;do Y uložit Z" style="whiteSpace=wrap;html=1;strokeWidth=2;" vertex="1" parent="WIyWlLk6GJQsqaUBKTNV-1">
          <mxGeometry x="230" y="600" width="120" height="60" as="geometry" />
        </mxCell>
        <mxCell id="4o-ihJ-DMzUth8nM_GmU-10" style="edgeStyle=orthogonalEdgeStyle;rounded=0;orthogonalLoop=1;jettySize=auto;html=1;entryX=1;entryY=0.5;entryDx=0;entryDy=0;entryPerimeter=0;" edge="1" parent="WIyWlLk6GJQsqaUBKTNV-1" source="4o-ihJ-DMzUth8nM_GmU-8" target="4o-ihJ-DMzUth8nM_GmU-4">
          <mxGeometry relative="1" as="geometry">
            <Array as="points">
              <mxPoint x="380" y="630" />
              <mxPoint x="380" y="440" />
            </Array>
          </mxGeometry>
        </mxCell>
        <mxCell id="4o-ihJ-DMzUth8nM_GmU-12" value="výsledek je v X" style="ellipse;whiteSpace=wrap;html=1;strokeWidth=2;" vertex="1" parent="WIyWlLk6GJQsqaUBKTNV-1">
          <mxGeometry x="120" y="400" width="80" height="80" as="geometry" />
        </mxCell>
        <mxCell id="4o-ihJ-DMzUth8nM_GmU-16" value="" style="edgeStyle=orthogonalEdgeStyle;rounded=0;orthogonalLoop=1;jettySize=auto;html=1;" edge="1" parent="WIyWlLk6GJQsqaUBKTNV-1" source="4o-ihJ-DMzUth8nM_GmU-17" target="4o-ihJ-DMzUth8nM_GmU-19">
          <mxGeometry relative="1" as="geometry" />
        </mxCell>
        <mxCell id="4o-ihJ-DMzUth8nM_GmU-17" value="Euklidův algoritmus" style="strokeWidth=2;html=1;shape=mxgraph.flowchart.start_2;whiteSpace=wrap;" vertex="1" parent="WIyWlLk6GJQsqaUBKTNV-1">
          <mxGeometry x="600" y="180" width="100" height="100" as="geometry" />
        </mxCell>
        <mxCell id="4o-ihJ-DMzUth8nM_GmU-18" value="" style="edgeStyle=orthogonalEdgeStyle;rounded=0;orthogonalLoop=1;jettySize=auto;html=1;" edge="1" parent="WIyWlLk6GJQsqaUBKTNV-1" source="4o-ihJ-DMzUth8nM_GmU-19" target="4o-ihJ-DMzUth8nM_GmU-22">
          <mxGeometry relative="1" as="geometry" />
        </mxCell>
        <mxCell id="4o-ihJ-DMzUth8nM_GmU-19" value="čísla X; Y" style="shape=parallelogram;perimeter=parallelogramPerimeter;whiteSpace=wrap;html=1;fixedSize=1;strokeWidth=2;" vertex="1" parent="WIyWlLk6GJQsqaUBKTNV-1">
          <mxGeometry x="590" y="310" width="120" height="60" as="geometry" />
        </mxCell>
        <mxCell id="4o-ihJ-DMzUth8nM_GmU-20" value="" style="edgeStyle=orthogonalEdgeStyle;rounded=0;orthogonalLoop=1;jettySize=auto;html=1;" edge="1" parent="WIyWlLk6GJQsqaUBKTNV-1" source="4o-ihJ-DMzUth8nM_GmU-22" target="4o-ihJ-DMzUth8nM_GmU-24">
          <mxGeometry relative="1" as="geometry" />
        </mxCell>
        <mxCell id="4o-ihJ-DMzUth8nM_GmU-21" value="" style="edgeStyle=orthogonalEdgeStyle;rounded=0;orthogonalLoop=1;jettySize=auto;html=1;" edge="1" parent="WIyWlLk6GJQsqaUBKTNV-1" source="4o-ihJ-DMzUth8nM_GmU-22" target="4o-ihJ-DMzUth8nM_GmU-27">
          <mxGeometry relative="1" as="geometry" />
        </mxCell>
        <mxCell id="4o-ihJ-DMzUth8nM_GmU-22" value="dokud v Y není 0 nebo v X není 0" style="strokeWidth=2;html=1;shape=mxgraph.flowchart.loop_limit;whiteSpace=wrap;" vertex="1" parent="WIyWlLk6GJQsqaUBKTNV-1">
          <mxGeometry x="600" y="401" width="100" height="60" as="geometry" />
        </mxCell>
        <mxCell id="4o-ihJ-DMzUth8nM_GmU-24" value="Vetsi cislo se zmensi mensim cislem" style="whiteSpace=wrap;html=1;strokeWidth=2;" vertex="1" parent="WIyWlLk6GJQsqaUBKTNV-1">
          <mxGeometry x="590" y="500" width="120" height="60" as="geometry" />
        </mxCell>
        <mxCell id="4o-ihJ-DMzUth8nM_GmU-26" style="edgeStyle=orthogonalEdgeStyle;rounded=0;orthogonalLoop=1;jettySize=auto;html=1;entryX=1;entryY=0.5;entryDx=0;entryDy=0;entryPerimeter=0;exitX=1;exitY=0.5;exitDx=0;exitDy=0;" edge="1" parent="WIyWlLk6GJQsqaUBKTNV-1" source="4o-ihJ-DMzUth8nM_GmU-24" target="4o-ihJ-DMzUth8nM_GmU-22">
          <mxGeometry relative="1" as="geometry">
            <Array as="points">
              <mxPoint x="740" y="530" />
              <mxPoint x="740" y="430" />
              <mxPoint x="700" y="430" />
            </Array>
            <mxPoint x="710" y="520" as="sourcePoint" />
          </mxGeometry>
        </mxCell>
        <mxCell id="4o-ihJ-DMzUth8nM_GmU-27" value="Výsledek je ve vetsim cisle z X a Y" style="ellipse;whiteSpace=wrap;html=1;strokeWidth=2;" vertex="1" parent="WIyWlLk6GJQsqaUBKTNV-1">
          <mxGeometry x="480" y="386" width="90" height="90" as="geometry" />
        </mxCell>
      </root>
    </mxGraphModel>
  </diagram>
</mxfile>
